<svg width="1024" height="1024" viewBox="0 0 1024 1024" fill="none" xmlns="http://www.w3.org/2000/svg">
<path d="M0 0H1024V1024H0V0Z" fill="#077187"/>
<path d="M252.929 249.066C207.525 292.81 170.533 329.064 170.667 329.733C170.801 330.402 188.428 349.13 209.661 371.337C235.435 398.36 248.121 412.407 247.454 413.477C246.786 414.413 235.034 429.797 221.146 447.724C206.723 466.318 196.307 481.034 196.708 482.104C197.108 483.174 266.817 565.447 351.616 665.11C436.415 764.773 506.258 847.982 506.792 849.855C507.46 852.531 508.395 853.333 511.332 853.333C514.27 853.333 515.205 852.531 515.873 849.855C516.407 847.982 586.249 764.773 671.049 665.11C755.848 565.447 825.69 483.04 825.957 482.104C826.358 481.034 815.808 466.185 801.519 447.724C787.631 429.797 775.879 414.413 775.211 413.477C774.277 411.871 795.777 388.728 842.784 340.301L853.333 329.465L770.27 249.601C724.465 205.588 686.807 170.138 686.272 170.673C685.738 171.208 646.343 293.479 598.669 442.239C550.994 591.132 511.733 712.868 511.332 712.868C510.932 712.868 471.671 591.132 423.996 442.239C376.322 293.479 336.927 171.342 336.393 170.673C335.992 170.138 298.333 205.455 252.929 249.066ZM787.097 330.803C787.097 331.739 770.938 349.398 751.04 370.267C731.276 391.002 714.984 408.527 714.984 409.196C714.984 409.865 727.003 425.918 741.559 444.78C766.932 477.689 768.134 479.295 766.264 482.238C763.86 486.251 554.867 731.463 554.333 731.062C554.066 730.66 704.167 261.774 706.971 254.283C707.773 252.276 787.097 328.127 787.097 330.803ZM392.213 492.271C434.279 623.372 468.466 730.794 468.332 731.062C467.798 731.597 258.805 486.251 256.401 482.238C254.531 479.295 255.733 477.689 281.106 444.78C295.662 425.918 307.681 409.865 307.681 409.196C307.681 408.527 291.522 391.002 271.625 370.267C251.861 349.398 235.568 331.739 235.568 330.803C235.568 329.064 312.355 254.149 314.358 254.149C315.159 254.015 350.147 361.304 392.213 492.271Z" fill="white"/>
<path d="M488.63 304.85H534.035V259.366H488.63V304.85Z" fill="white"/>
<path d="M488.63 418.56H534.035V373.076H488.63V418.56Z" fill="white"/>
<path d="M488.63 533.608H534.035V488.124H488.63V533.608Z" fill="white"/>
</svg>
